<svg version="1.1" xmlns="http://www.w3.org/2000/svg" xmlns:xlink="http://www.w3.org/1999/xlink" width="788" height="444"><defs></defs><g><g transform="translate(-6,2) scale(1,1)"><rect fill="#C0C0C0" stroke="none" x="23" y="15" width="307.2" height="15" opacity="0.2"></rect></g><g transform="translate(-6,2) scale(1,1)"><rect fill="#C0C0C0" stroke="none" x="23" y="29" width="768" height="370" opacity="0.2"></rect></g><g transform="translate(-6,2) scale(1,1)"><rect fill="#ffffff" stroke="none" x="16" y="23" width="768" height="369"></rect></g><g transform="translate(-6,2) scale(1,1)"><path fill="none" stroke="#000000" d="M 16 23 L 784 23 L 784 392 L 16 392 L 16 23 Z Z" stroke-miterlimit="10"></path></g><g transform="translate(-6,2) scale(1,1)"><rect fill="#ffffff" stroke="none" x="16" y="8" width="307.2" height="15"></rect></g><g transform="translate(-6,2) scale(1,1)"><path fill="none" stroke="#000000" d="M 16 8 L 323.2 8 L 323.2 23 L 16 23 L 16 8 Z Z" stroke-miterlimit="10"></path></g><g transform="translate(-6,2) scale(1,1)"><rect fill="#ffffff" stroke="none" x="16" y="22" width="768" height="370"></rect></g><g transform="translate(-6,2) scale(1,1)"><path fill="none" stroke="#000000" d="M 16 22 L 784 22 L 784 392 L 16 392 L 16 22 Z Z" stroke-miterlimit="10"></path></g><g transform="translate(-6,2) scale(1,1)"><g><path fill="none" stroke="none"></path><text fill="#000000" stroke="none" font-family="Arial" font-size="13px" font-style="normal" font-weight="bold" text-decoration="none" x="382" y="42.5">Server</text></g></g><g transform="translate(-6,2) scale(1,1)"><rect fill="#C0C0C0" stroke="none" x="47" y="287" width="134" height="57" opacity="0.2"></rect></g><g transform="translate(-6,2) scale(1,1)"><rect fill="#ffffff" stroke="none" x="40" y="280" width="134" height="57"></rect></g><g transform="translate(-6,2) scale(1,1)"><path fill="none" stroke="#000000" d="M 40 280 L 174 280 L 174 337 L 40 337 L 40 280 Z Z" stroke-miterlimit="10"></path></g><g transform="translate(-6,2) scale(1,1)"><path fill="none" stroke="#000000" d="M 40 305 L 174 305" stroke-miterlimit="10"></path></g><g transform="translate(-6,2) scale(1,1)"><path fill="none" stroke="#000000" d="M 40 315 L 174 315" stroke-miterlimit="10"></path></g><g transform="translate(-6,2) scale(1,1)"><g><path fill="none" stroke="none"></path><text fill="#000000" stroke="none" font-family="Arial" font-size="13px" font-style="normal" font-weight="bold" text-decoration="none" x="54.5" y="299.5">DatabaseManager</text></g></g><g transform="translate(-6,2) scale(1,1)"><g><path fill="none" stroke="none"></path><text fill="#000000" stroke="none" font-family="Arial" font-size="13px" font-style="normal" font-weight="normal" text-decoration="none" x="45" y="332.5">+getDatabase(): PDO</text></g></g><g transform="translate(-6,2) scale(1,1)"><rect fill="#C0C0C0" stroke="none" x="263" y="183" width="520" height="207" opacity="0.2"></rect></g><g transform="translate(-6,2) scale(1,1)"><rect fill="#ffffff" stroke="none" x="256" y="176" width="520" height="207"></rect></g><g transform="translate(-6,2) scale(1,1)"><path fill="none" stroke="#000000" d="M 256 176 L 776 176 L 776 383 L 256 383 L 256 176 Z Z" stroke-miterlimit="10"></path></g><g transform="translate(-6,2) scale(1,1)"><path fill="none" stroke="#000000" d="M 256 201 L 776 201" stroke-miterlimit="10"></path></g><g transform="translate(-6,2) scale(1,1)"><path fill="none" stroke="#000000" d="M 256 211 L 776 211" stroke-miterlimit="10"></path></g><g transform="translate(-6,2) scale(1,1)"><g><path fill="none" stroke="none"></path><text fill="#000000" stroke="none" font-family="Arial" font-size="13px" font-style="normal" font-weight="bold" text-decoration="none" x="460" y="195.5">DatabaseFunctions</text></g></g><g transform="translate(-6,2) scale(1,1)"><g><path fill="none" stroke="none"></path><text fill="#000000" stroke="none" font-family="Arial" font-size="13px" font-style="normal" font-weight="normal" text-decoration="none" x="261" y="228.5">+addUser(username: string, password: string)</text></g></g><g transform="translate(-6,2) scale(1,1)"><g><path fill="none" stroke="none"></path><text fill="#000000" stroke="none" font-family="Arial" font-size="13px" font-style="normal" font-weight="normal" text-decoration="none" x="261" y="243.5">+removeUser()</text></g></g><g transform="translate(-6,2) scale(1,1)"><g><path fill="none" stroke="none"></path><text fill="#000000" stroke="none" font-family="Arial" font-size="13px" font-style="normal" font-weight="normal" text-decoration="none" x="261" y="258.5">+login(username: string, password: string, ip: string, port: int, publicKey: string): boolean</text></g></g><g transform="translate(-6,2) scale(1,1)"><g><path fill="none" stroke="none"></path><text fill="#000000" stroke="none" font-family="Arial" font-size="13px" font-style="normal" font-weight="normal" text-decoration="none" x="261" y="273.5">+refreshStatus(ip: string)</text></g></g><g transform="translate(-6,2) scale(1,1)"><g><path fill="none" stroke="none"></path><text fill="#000000" stroke="none" font-family="Arial" font-size="13px" font-style="normal" font-weight="normal" text-decoration="none" x="261" y="288.5">+logout()</text></g></g><g transform="translate(-6,2) scale(1,1)"><g><path fill="none" stroke="none"></path><text fill="#000000" stroke="none" font-family="Arial" font-size="13px" font-style="normal" font-weight="normal" text-decoration="none" x="261" y="303.5">+getContacts()</text></g></g><g transform="translate(-6,2) scale(1,1)"><g><path fill="none" stroke="none"></path><text fill="#000000" stroke="none" font-family="Arial" font-size="13px" font-style="normal" font-weight="normal" text-decoration="none" x="261" y="318.5">+findContacts(search: string)</text></g></g><g transform="translate(-6,2) scale(1,1)"><g><path fill="none" stroke="none"></path><text fill="#000000" stroke="none" font-family="Arial" font-size="13px" font-style="normal" font-weight="normal" text-decoration="none" x="261" y="333.5">+addContact(username: string)</text></g></g><g transform="translate(-6,2) scale(1,1)"><g><path fill="none" stroke="none"></path><text fill="#000000" stroke="none" font-family="Arial" font-size="13px" font-style="normal" font-weight="normal" text-decoration="none" x="261" y="348.5">+acceptContact(username: string)</text></g></g><g transform="translate(-6,2) scale(1,1)"><g><path fill="none" stroke="none"></path><text fill="#000000" stroke="none" font-family="Arial" font-size="13px" font-style="normal" font-weight="normal" text-decoration="none" x="261" y="363.5">+blockContact(username: string)</text></g></g><g transform="translate(-6,2) scale(1,1)"><g><path fill="none" stroke="none"></path><text fill="#000000" stroke="none" font-family="Arial" font-size="13px" font-style="normal" font-weight="normal" text-decoration="none" x="261" y="378.5">+getConnectionData(username: string)</text></g></g><g transform="translate(-6,2) scale(1,1)"><path fill="none" stroke="#000000" d="M 255 298 L 175 303" stroke-miterlimit="10" stroke-dasharray="3"></path></g><g transform="translate(-6,2) scale(1,1)"><path fill="none" stroke="#000000" d="M 184.88030134277494 298.1647497090678 L 175 303 L 185.4054663490951 306.5673898101903" stroke-miterlimit="10"></path></g><g transform="translate(-6,2) scale(1,1)"><g><path fill="none" stroke="none"></path><text fill="#000000" stroke="none" font-family="Arial" font-size="13px" font-style="normal" font-weight="normal" text-decoration="none" x="200" y="293">«use»</text></g></g><g transform="translate(-6,2) scale(1,1)"><rect fill="#C0C0C0" stroke="none" x="31" y="143" width="167" height="85" opacity="0.2"></rect></g><g transform="translate(-6,2) scale(1,1)"><rect fill="#ffffff" stroke="none" x="24" y="136" width="167" height="85"></rect></g><g transform="translate(-6,2) scale(1,1)"><path fill="none" stroke="#000000" d="M 24 136 L 191 136 L 191 221 L 24 221 L 24 136 Z Z" stroke-miterlimit="10"></path></g><g transform="translate(-6,2) scale(1,1)"><path fill="none" stroke="#000000" d="M 24 161 L 191 161" stroke-miterlimit="10"></path></g><g transform="translate(-6,2) scale(1,1)"><path fill="none" stroke="#000000" d="M 24 184 L 191 184" stroke-miterlimit="10"></path></g><g transform="translate(-6,2) scale(1,1)"><g><path fill="none" stroke="none"></path><text fill="#000000" stroke="none" font-family="Arial" font-size="13px" font-style="normal" font-weight="bold" text-decoration="none" x="46.5" y="155.5">SessionManagement</text></g></g><g transform="translate(-6,2) scale(1,1)"><g><path fill="none" stroke="none"></path><text fill="#000000" stroke="none" font-family="Arial" font-size="13px" font-style="normal" font-weight="normal" text-decoration="none" x="29" y="178.5">-actualUser: string</text></g></g><g transform="translate(-6,2) scale(1,1)"><g><path fill="none" stroke="none"></path><text fill="#000000" stroke="none" font-family="Arial" font-size="13px" font-style="normal" font-weight="normal" text-decoration="none" x="29" y="201.5">+getUser(): string</text></g></g><g transform="translate(-6,2) scale(1,1)"><g><path fill="none" stroke="none"></path><text fill="#000000" stroke="none" font-family="Arial" font-size="13px" font-style="normal" font-weight="normal" text-decoration="none" x="29" y="216.5">+setUser(username: string)</text></g></g><g transform="translate(-6,2) scale(1,1)"><path fill="none" stroke="#000000" d="M 255 215 L 192 199" stroke-miterlimit="10" stroke-dasharray="3"></path></g><g transform="translate(-6,2) scale(1,1)"><path fill="none" stroke="#000000" d="M 202.8861661557935 197.42158737066123 L 192 199 L 200.81378818360102 205.58157563616913" stroke-miterlimit="10"></path></g><g transform="translate(-6,2) scale(1,1)"><g><path fill="none" stroke="none"></path><text fill="#000000" stroke="none" font-family="Arial" font-size="13px" font-style="normal" font-weight="normal" text-decoration="none" x="209" y="202">«use»</text></g></g><g transform="translate(-6,2) scale(1,1)"><rect fill="#C0C0C0" stroke="none" x="455" y="95" width="277" height="72" opacity="0.2"></rect></g><g transform="translate(-6,2) scale(1,1)"><rect fill="#ffffff" stroke="none" x="448" y="88" width="277" height="72"></rect></g><g transform="translate(-6,2) scale(1,1)"><path fill="none" stroke="#000000" d="M 448 88 L 725 88 L 725 160 L 448 160 L 448 88 Z Z" stroke-miterlimit="10"></path></g><g transform="translate(-6,2) scale(1,1)"><path fill="none" stroke="#000000" d="M 448 113 L 725 113" stroke-miterlimit="10"></path></g><g transform="translate(-6,2) scale(1,1)"><path fill="none" stroke="#000000" d="M 448 123 L 725 123" stroke-miterlimit="10"></path></g><g transform="translate(-6,2) scale(1,1)"><g><path fill="none" stroke="none"></path><text fill="#000000" stroke="none" font-family="Arial" font-size="13px" font-style="normal" font-weight="bold" text-decoration="none" x="557.5" y="107.5">Validators</text></g></g><g transform="translate(-6,2) scale(1,1)"><g><path fill="none" stroke="none"></path><text fill="#000000" stroke="none" font-family="Arial" font-size="13px" font-style="normal" font-weight="normal" text-decoration="none" x="453" y="140.5">+validateUsername(username: string): boolean</text></g></g><g transform="translate(-6,2) scale(1,1)"><g><path fill="none" stroke="none"></path><text fill="#000000" stroke="none" font-family="Arial" font-size="13px" font-style="normal" font-weight="normal" text-decoration="none" x="453" y="155.5">+validatePassword(password: string): boolean</text></g></g><g transform="translate(-6,2) scale(1,1)"><rect fill="#C0C0C0" stroke="none" x="231" y="63" width="159" height="57" opacity="0.2"></rect></g><g transform="translate(-6,2) scale(1,1)"><rect fill="#ffffff" stroke="none" x="224" y="56" width="159" height="57"></rect></g><g transform="translate(-6,2) scale(1,1)"><path fill="none" stroke="#000000" d="M 224 56 L 383 56 L 383 113 L 224 113 L 224 56 Z Z" stroke-miterlimit="10"></path></g><g transform="translate(-6,2) scale(1,1)"><path fill="none" stroke="#000000" d="M 224 81 L 383 81" stroke-miterlimit="10"></path></g><g transform="translate(-6,2) scale(1,1)"><path fill="none" stroke="#000000" d="M 224 91 L 383 91" stroke-miterlimit="10"></path></g><g transform="translate(-6,2) scale(1,1)"><g><path fill="none" stroke="none"></path><text fill="#000000" stroke="none" font-family="Arial" font-size="13px" font-style="normal" font-weight="bold" text-decoration="none" x="250" y="75.5">RequestProcessor</text></g></g><g transform="translate(-6,2) scale(1,1)"><g><path fill="none" stroke="none"></path><text fill="#000000" stroke="none" font-family="Arial" font-size="13px" font-style="normal" font-weight="normal" text-decoration="none" x="229" y="108.5">+processRequest(): string</text></g></g><g transform="translate(-6,2) scale(1,1)"><path fill="none" stroke="#000000" d="M 384 95 L 447 104" stroke-miterlimit="10" stroke-dasharray="3"></path></g><g transform="translate(-6,2) scale(1,1)"><path fill="none" stroke="#000000" d="M 436.3441494602911 106.72999070976171 L 447 104 L 437.53478088061274 98.39557076751026" stroke-miterlimit="10"></path></g><g transform="translate(-6,2) scale(1,1)"><g><path fill="none" stroke="none"></path><text fill="#000000" stroke="none" font-family="Arial" font-size="13px" font-style="normal" font-weight="normal" text-decoration="none" x="400" y="92">«use»</text></g></g><g transform="translate(-6,2) scale(1,1)"><path fill="none" stroke="#000000" d="M 336 114 L 402 175" stroke-miterlimit="10" stroke-dasharray="3"></path></g><g transform="translate(-6,2) scale(1,1)"><path fill="none" stroke="#000000" d="M 391.67959133261684 171.1935364262609 L 402 175 L 397.3939452520075 165.01079284134644" stroke-miterlimit="10"></path></g><g transform="translate(-6,2) scale(1,1)"><g><path fill="none" stroke="none"></path><text fill="#000000" stroke="none" font-family="Arial" font-size="13px" font-style="normal" font-weight="normal" text-decoration="none" x="366" y="142">«use»</text></g></g><g transform="translate(-6,2) scale(1,1)"><path fill="#ffffff" stroke="none" d="M 344 408 L 445 408 L 455 418 L 455 431 L 344 431 L 344 408"></path></g><g transform="translate(-6,2) scale(1,1)"><path fill="none" stroke="#000000" d="M 344 408 L 445 408 L 455 418 L 455 431 L 344 431 L 344 408 L 344 408" stroke-miterlimit="10"></path></g><g transform="translate(-6,2) scale(1,1)"><path fill="none" stroke="#000000" d="M 445 408 L 445 418 L 455 418 L 445 408" stroke-miterlimit="10"></path></g><g transform="translate(-6,2) scale(1,1)"><g><path fill="none" stroke="none"></path><text fill="#000000" stroke="none" font-family="Arial" font-size="13px" font-style="normal" font-weight="normal" text-decoration="none" x="349" y="426">Written in PHP</text></g></g><g transform="translate(-6,2) scale(1,1)"><path fill="none" stroke="#000000" d="M 400 407 L 400 393" stroke-miterlimit="10" stroke-dasharray="3"></path></g><g transform="translate(-6,2) scale(1,1)"><path fill="#ffffff" stroke="none" d="M 56 352 L 146 352 L 156 362 L 156 375 L 56 375 L 56 352"></path></g><g transform="translate(-6,2) scale(1,1)"><path fill="none" stroke="#000000" d="M 56 352 L 146 352 L 156 362 L 156 375 L 56 375 L 56 352 L 56 352" stroke-miterlimit="10"></path></g><g transform="translate(-6,2) scale(1,1)"><path fill="none" stroke="#000000" d="M 146 352 L 146 362 L 156 362 L 146 352" stroke-miterlimit="10"></path></g><g transform="translate(-6,2) scale(1,1)"><g><path fill="none" stroke="none"></path><text fill="#000000" stroke="none" font-family="Arial" font-size="13px" font-style="normal" font-weight="normal" text-decoration="none" x="61" y="370">DB config file</text></g></g><g transform="translate(-6,2) scale(1,1)"><path fill="none" stroke="#000000" d="M 106 351 L 106 338" stroke-miterlimit="10" stroke-dasharray="3"></path></g><g transform="translate(-6,2) scale(1,1)"><path fill="#ffffff" stroke="none" d="M 48 240 L 165 240 L 175 250 L 175 263 L 48 263 L 48 240"></path></g><g transform="translate(-6,2) scale(1,1)"><path fill="none" stroke="#000000" d="M 48 240 L 165 240 L 175 250 L 175 263 L 48 263 L 48 240 L 48 240" stroke-miterlimit="10"></path></g><g transform="translate(-6,2) scale(1,1)"><path fill="none" stroke="#000000" d="M 165 240 L 165 250 L 175 250 L 165 240" stroke-miterlimit="10"></path></g><g transform="translate(-6,2) scale(1,1)"><g><path fill="none" stroke="none"></path><text fill="#000000" stroke="none" font-family="Arial" font-size="13px" font-style="normal" font-weight="normal" text-decoration="none" x="53" y="258">using $_SESSION</text></g></g><g transform="translate(-6,2) scale(1,1)"><path fill="none" stroke="#000000" d="M 111 239 L 110 222" stroke-miterlimit="10" stroke-dasharray="3"></path></g></g></svg>