<svg version="1.1" xmlns="http://www.w3.org/2000/svg" xmlns:xlink="http://www.w3.org/1999/xlink" width="527" height="623"><defs></defs><g><g transform="translate(5,5) scale(1,1)"><path fill="none" stroke="#000000" d="M 5 5 L 512 5 L 512 608 L 5 608 L 5 5" stroke-miterlimit="10"></path></g><g transform="translate(5,5) scale(1,1)"><path fill="#ffffff" stroke="none" d="M 5 5 L 5 27 L 137 27 L 148 16 L 148 5 L 5 5"></path></g><g transform="translate(5,5) scale(1,1)"><path fill="none" stroke="#000000" d="M 5 5 L 5 27 L 137 27 L 148 16 L 148 5 L 5 5 L 5 5" stroke-miterlimit="10"></path></g><g transform="translate(5,5) scale(1,1)"><g><path fill="none" stroke="none"></path><text fill="#000000" stroke="none" font-family="Arial" font-size="13px" font-style="normal" font-weight="normal" text-decoration="none" x="76" y="22.5">AddClient</text></g></g><g transform="translate(5,5) scale(1,1)"><g><path fill="none" stroke="none"></path><text fill="#000000" stroke="none" font-family="Arial" font-size="13px" font-style="normal" font-weight="bold" text-decoration="none" x="10" y="22.5">interaction</text></g></g><g transform="translate(5,5) scale(1,1)"><rect fill="#C0C0C0" stroke="none" x="23" y="47" width="64" height="39" opacity="0.2"></rect></g><g transform="translate(5,5) scale(1,1)"><rect fill="#ffffff" stroke="none" x="16" y="40" width="64" height="39"></rect></g><g transform="translate(5,5) scale(1,1)"><path fill="none" stroke="#000000" d="M 16 40 L 80 40 L 80 79 L 16 79 L 16 40 Z Z" stroke-miterlimit="10"></path></g><g transform="translate(5,5) scale(1,1)"><g><path fill="none" stroke="none"></path><text fill="#000000" stroke="none" font-family="Arial" font-size="13px" font-style="normal" font-weight="bold" text-decoration="none" x="30" y="59.5">Server</text></g></g><g transform="translate(5,5) scale(1,1)"><path fill="none" stroke="#000000" d="M 49.5 80 L 49.5 592" stroke-miterlimit="10" stroke-dasharray="3"></path></g><g transform="translate(5,5) scale(1,1)"><rect fill="#C0C0C0" stroke="none" x="279" y="47" width="64" height="39" opacity="0.2"></rect></g><g transform="translate(5,5) scale(1,1)"><rect fill="#ffffff" stroke="none" x="272" y="40" width="64" height="39"></rect></g><g transform="translate(5,5) scale(1,1)"><path fill="none" stroke="#000000" d="M 272 40 L 336 40 L 336 79 L 272 79 L 272 40 Z Z" stroke-miterlimit="10"></path></g><g transform="translate(5,5) scale(1,1)"><g><path fill="none" stroke="none"></path><text fill="#000000" stroke="none" font-family="Arial" font-size="13px" font-style="normal" font-weight="bold" text-decoration="none" x="284" y="59.5">Client1</text></g></g><g transform="translate(5,5) scale(1,1)"><path fill="none" stroke="#000000" d="M 305.5 80 L 305.5 592" stroke-miterlimit="10" stroke-dasharray="3"></path></g><g transform="translate(5,5) scale(1,1)"><rect fill="#C0C0C0" stroke="none" x="439" y="47" width="64" height="39" opacity="0.2"></rect></g><g transform="translate(5,5) scale(1,1)"><rect fill="#ffffff" stroke="none" x="432" y="40" width="64" height="39"></rect></g><g transform="translate(5,5) scale(1,1)"><path fill="none" stroke="#000000" d="M 432 40 L 496 40 L 496 79 L 432 79 L 432 40 Z Z" stroke-miterlimit="10"></path></g><g transform="translate(5,5) scale(1,1)"><g><path fill="none" stroke="none"></path><text fill="#000000" stroke="none" font-family="Arial" font-size="13px" font-style="normal" font-weight="bold" text-decoration="none" x="444" y="59.5">Client2</text></g></g><g transform="translate(5,5) scale(1,1)"><path fill="none" stroke="#000000" d="M 465.5 80 L 465.5 592" stroke-miterlimit="10" stroke-dasharray="3"></path></g><g transform="translate(5,5) scale(1,1)"><path fill="none" stroke="#000000" d="M 305 114 L 55 114" stroke-miterlimit="10"></path></g><g transform="translate(5,5) scale(1,1)"><path fill="#000000" stroke="none" d="M 65.16267485762415 109.79048224398402 L 55 114 L 65.16267485762415 118.20951775601598"></path></g><g transform="translate(5,5) scale(1,1)"><path fill="none" stroke="#000000" d="M 65.16267485762415 109.79048224398402 L 55 114 L 65.16267485762415 118.20951775601598 L 65.16267485762415 109.79048224398402" stroke-miterlimit="10"></path></g><g transform="translate(5,5) scale(1,1)"><g><path fill="none" stroke="none"></path><text fill="#000000" stroke="none" font-family="Arial" font-size="13px" font-style="normal" font-weight="normal" text-decoration="none" x="106" y="108">1 : FindContacts("Client")</text></g></g><g transform="translate(5,5) scale(1,1)"><rect fill="#ffffff" stroke="none" x="42" y="114" width="13" height="30"></rect></g><g transform="translate(5,5) scale(1,1)"><path fill="none" stroke="#000000" d="M 42 114 L 55 114 L 55 144 L 42 144 L 42 114 Z Z" stroke-miterlimit="10"></path></g><g transform="translate(5,5) scale(1,1)"><path fill="none" stroke="#000000" d="M 49 144 L 305 144" stroke-miterlimit="10" stroke-dasharray="3"></path></g><g transform="translate(5,5) scale(1,1)"><path fill="none" stroke="#000000" d="M 294.83732514237585 148.209517756016 L 305 144 L 294.83732514237585 139.790482243984" stroke-miterlimit="10"></path></g><g transform="translate(5,5) scale(1,1)"><g><path fill="none" stroke="none"></path><text fill="#000000" stroke="none" font-family="Arial" font-size="13px" font-style="normal" font-weight="normal" text-decoration="none" x="82" y="141">2 : Contacts(["Client1","Client2"])</text></g></g><g transform="translate(5,5) scale(1,1)"><path fill="none" stroke="#000000" d="M 305 176 L 55 176" stroke-miterlimit="10"></path></g><g transform="translate(5,5) scale(1,1)"><path fill="#000000" stroke="none" d="M 65.16267485762415 171.790482243984 L 55 176 L 65.16267485762415 180.209517756016"></path></g><g transform="translate(5,5) scale(1,1)"><path fill="none" stroke="#000000" d="M 65.16267485762415 171.790482243984 L 55 176 L 65.16267485762415 180.209517756016 L 65.16267485762415 171.790482243984" stroke-miterlimit="10"></path></g><g transform="translate(5,5) scale(1,1)"><g><path fill="none" stroke="none"></path><text fill="#000000" stroke="none" font-family="Arial" font-size="13px" font-style="normal" font-weight="normal" text-decoration="none" x="107" y="172">3 : AddContact("Client2")</text></g></g><g transform="translate(5,5) scale(1,1)"><rect fill="#ffffff" stroke="none" x="42" y="176" width="13" height="32"></rect></g><g transform="translate(5,5) scale(1,1)"><path fill="none" stroke="#000000" d="M 42 176 L 55 176 L 55 208 L 42 208 L 42 176 Z Z" stroke-miterlimit="10"></path></g><g transform="translate(5,5) scale(1,1)"><path fill="none" stroke="#000000" d="M 49 208 L 305 208" stroke-miterlimit="10" stroke-dasharray="3"></path></g><g transform="translate(5,5) scale(1,1)"><path fill="none" stroke="#000000" d="M 294.83732514237585 212.209517756016 L 305 208 L 294.83732514237585 203.790482243984" stroke-miterlimit="10"></path></g><g transform="translate(5,5) scale(1,1)"><g><path fill="none" stroke="none"></path><text fill="#000000" stroke="none" font-family="Arial" font-size="13px" font-style="normal" font-weight="normal" text-decoration="none" x="72" y="205">4 : OK, PendingContacts(["Client2"])</text></g></g><g transform="translate(5,5) scale(1,1)"><path fill="none" stroke="#000000" d="M 465 288 L 55 288" stroke-miterlimit="10"></path></g><g transform="translate(5,5) scale(1,1)"><path fill="#000000" stroke="none" d="M 65.16267485762415 283.790482243984 L 55 288 L 65.16267485762415 292.209517756016"></path></g><g transform="translate(5,5) scale(1,1)"><path fill="none" stroke="#000000" d="M 65.16267485762415 283.790482243984 L 55 288 L 65.16267485762415 292.209517756016 L 65.16267485762415 283.790482243984" stroke-miterlimit="10"></path></g><g transform="translate(5,5) scale(1,1)"><g><path fill="none" stroke="none"></path><text fill="#000000" stroke="none" font-family="Arial" font-size="13px" font-style="normal" font-weight="normal" text-decoration="none" x="209" y="284">5 : RefreshStatus</text></g></g><g transform="translate(5,5) scale(1,1)"><rect fill="#ffffff" stroke="none" x="42" y="288" width="13" height="32"></rect></g><g transform="translate(5,5) scale(1,1)"><path fill="none" stroke="#000000" d="M 42 288 L 55 288 L 55 320 L 42 320 L 42 288 Z Z" stroke-miterlimit="10"></path></g><g transform="translate(5,5) scale(1,1)"><path fill="none" stroke="#000000" d="M 49 320 L 465 320" stroke-miterlimit="10" stroke-dasharray="3"></path></g><g transform="translate(5,5) scale(1,1)"><path fill="none" stroke="#000000" d="M 454.83732514237585 324.209517756016 L 465 320 L 454.83732514237585 315.790482243984" stroke-miterlimit="10"></path></g><g transform="translate(5,5) scale(1,1)"><g><path fill="none" stroke="none"></path><text fill="#000000" stroke="none" font-family="Arial" font-size="13px" font-style="normal" font-weight="normal" text-decoration="none" x="165" y="317">6 : ContactRequests(["Client1"])</text></g></g><g transform="translate(5,5) scale(1,1)"><path fill="none" stroke="#000000" d="M 465 352 L 55 352" stroke-miterlimit="10"></path></g><g transform="translate(5,5) scale(1,1)"><path fill="#000000" stroke="none" d="M 65.16267485762415 347.790482243984 L 55 352 L 65.16267485762415 356.209517756016"></path></g><g transform="translate(5,5) scale(1,1)"><path fill="none" stroke="#000000" d="M 65.16267485762415 347.790482243984 L 55 352 L 65.16267485762415 356.209517756016 L 65.16267485762415 347.790482243984" stroke-miterlimit="10"></path></g><g transform="translate(5,5) scale(1,1)"><g><path fill="none" stroke="none"></path><text fill="#000000" stroke="none" font-family="Arial" font-size="13px" font-style="normal" font-weight="normal" text-decoration="none" x="178" y="348">7 : AcceptContact("Client1")</text></g></g><g transform="translate(5,5) scale(1,1)"><rect fill="#ffffff" stroke="none" x="42" y="352" width="13" height="32"></rect></g><g transform="translate(5,5) scale(1,1)"><path fill="none" stroke="#000000" d="M 42 352 L 55 352 L 55 384 L 42 384 L 42 352 Z Z" stroke-miterlimit="10"></path></g><g transform="translate(5,5) scale(1,1)"><path fill="none" stroke="#000000" d="M 49 384 L 465 384" stroke-miterlimit="10" stroke-dasharray="3"></path></g><g transform="translate(5,5) scale(1,1)"><path fill="none" stroke="#000000" d="M 454.83732514237585 388.209517756016 L 465 384 L 454.83732514237585 379.790482243984" stroke-miterlimit="10"></path></g><g transform="translate(5,5) scale(1,1)"><g><path fill="none" stroke="none"></path><text fill="#000000" stroke="none" font-family="Arial" font-size="13px" font-style="normal" font-weight="normal" text-decoration="none" x="175" y="381">8 : OK, Contacts(["Client1"])</text></g></g><g transform="translate(5,5) scale(1,1)"><path fill="none" stroke="#000000" d="M 305 464 L 55 464" stroke-miterlimit="10"></path></g><g transform="translate(5,5) scale(1,1)"><path fill="#000000" stroke="none" d="M 65.16267485762415 459.790482243984 L 55 464 L 65.16267485762415 468.209517756016"></path></g><g transform="translate(5,5) scale(1,1)"><path fill="none" stroke="#000000" d="M 65.16267485762415 459.790482243984 L 55 464 L 65.16267485762415 468.209517756016 L 65.16267485762415 459.790482243984" stroke-miterlimit="10"></path></g><g transform="translate(5,5) scale(1,1)"><g><path fill="none" stroke="none"></path><text fill="#000000" stroke="none" font-family="Arial" font-size="13px" font-style="normal" font-weight="normal" text-decoration="none" x="129" y="460">9 : RefreshStatus</text></g></g><g transform="translate(5,5) scale(1,1)"><rect fill="#ffffff" stroke="none" x="42" y="464" width="13" height="32"></rect></g><g transform="translate(5,5) scale(1,1)"><path fill="none" stroke="#000000" d="M 42 464 L 55 464 L 55 496 L 42 496 L 42 464 Z Z" stroke-miterlimit="10"></path></g><g transform="translate(5,5) scale(1,1)"><path fill="none" stroke="#000000" d="M 49 496 L 305 496" stroke-miterlimit="10" stroke-dasharray="3"></path></g><g transform="translate(5,5) scale(1,1)"><path fill="none" stroke="#000000" d="M 294.83732514237585 500.209517756016 L 305 496 L 294.83732514237585 491.790482243984" stroke-miterlimit="10"></path></g><g transform="translate(5,5) scale(1,1)"><g><path fill="none" stroke="none"></path><text fill="#000000" stroke="none" font-family="Arial" font-size="13px" font-style="normal" font-weight="normal" text-decoration="none" x="91" y="493">10 : OK, No PendingContacts</text></g></g><g transform="translate(5,5) scale(1,1)"><path fill="none" stroke="#000000" d="M 305 528 L 55 528" stroke-miterlimit="10"></path></g><g transform="translate(5,5) scale(1,1)"><path fill="#000000" stroke="none" d="M 65.16267485762415 523.790482243984 L 55 528 L 65.16267485762415 532.209517756016"></path></g><g transform="translate(5,5) scale(1,1)"><path fill="none" stroke="#000000" d="M 65.16267485762415 523.790482243984 L 55 528 L 65.16267485762415 532.209517756016 L 65.16267485762415 523.790482243984" stroke-miterlimit="10"></path></g><g transform="translate(5,5) scale(1,1)"><g><path fill="none" stroke="none"></path><text fill="#000000" stroke="none" font-family="Arial" font-size="13px" font-style="normal" font-weight="normal" text-decoration="none" x="130" y="524">11 : GetContacts</text></g></g><g transform="translate(5,5) scale(1,1)"><rect fill="#ffffff" stroke="none" x="42" y="528" width="13" height="32"></rect></g><g transform="translate(5,5) scale(1,1)"><path fill="none" stroke="#000000" d="M 42 528 L 55 528 L 55 560 L 42 560 L 42 528 Z Z" stroke-miterlimit="10"></path></g><g transform="translate(5,5) scale(1,1)"><path fill="none" stroke="#000000" d="M 49 560 L 305 560" stroke-miterlimit="10" stroke-dasharray="3"></path></g><g transform="translate(5,5) scale(1,1)"><path fill="none" stroke="#000000" d="M 294.83732514237585 564.209517756016 L 305 560 L 294.83732514237585 555.790482243984" stroke-miterlimit="10"></path></g><g transform="translate(5,5) scale(1,1)"><g><path fill="none" stroke="none"></path><text fill="#000000" stroke="none" font-family="Arial" font-size="13px" font-style="normal" font-weight="normal" text-decoration="none" x="105" y="557">12 : Contacts(["Client2"])</text></g></g></g></svg>